<svg xmlns="http://www.w3.org/2000/svg" version="1.1" width="1000" height="239" viewBox="0 0 1000 239">
    <g transform="matrix(1,0,0,1,-0.6060606060606233,-0.30847326824672905)">
        <svg viewBox="0 0 396 95" data-background-color="#000000" preserveAspectRatio="xMidYMid meet" height="239"
             width="1000" xmlns="http://www.w3.org/2000/svg" xmlns:xlink="http://www.w3.org/1999/xlink">
            <defs></defs>
            <g id="tight-bounds" transform="matrix(1,0,0,1,0.2400000000000091,0.12261489742024878)">
                <svg viewBox="0 0 395.52 94.7547702051595" height="94.7547702051595" width="395.52">
                    <g>
                        <svg viewBox="0 0 561.1579430719488 134.43667057186107" height="94.7547702051595"
                             width="395.52">
                            <g>
                                <rect width="5.00373051848594" height="97.76328069806102" x="147.53544156266196"
                                      y="18.336694936900024" fill="#ffffff" opacity="1" stroke-width="0"
                                      stroke="transparent" fill-opacity="1" class="rect-si-0"
                                      rx="1%" id="si-0"
                                ></rect>
                            </g>
                            <g transform="matrix(1,0,0,1,165.6379430719488,18.57988717744246)">
                                <svg viewBox="0 0 395.52 97.27689621697616" height="97.27689621697616" width="395.52">
                                    <g>
                                        <svg viewBox="0 0 395.52 97.27689621697616" height="97.27689621697616"
                                             width="395.52">
                                            <g>
                                                <svg viewBox="0 0 395.52 55.48539873092094" height="55.48539873092094"
                                                     width="395.52">
                                                    <g transform="matrix(1,0,0,1,0,0)">
                                                        <svg width="395.52" viewBox="3.22 -38.23 286.26 39.94"
                                                             height="55.48539873092094" data-palette-color="#ffffff">
                                                            <g class="undefined-text-0"
                                                               id="text-0">
                                                                <path d="M27.71-20.07L27.71-20.07Q27.61-19.7 27.34-19.02 27.08-18.33 26.73-17.47 26.39-16.6 25.98-15.64 25.56-14.67 25.17-13.75L25.17-13.75Q25-13.33 24.77-13.13 24.54-12.94 23.83-12.92L23.83-12.92 16.7-12.79 15.82-1.95Q15.8-1.73 15.7-1.53 15.6-1.32 15.41-1.2L15.41-1.2Q15.33-1.15 14.83-0.92 14.33-0.68 13.57-0.37 12.82-0.05 11.91 0.32 11.01 0.68 10.13 0.99 9.25 1.29 8.52 1.5 7.79 1.71 7.37 1.71L7.37 1.71Q6.88 1.71 6.48 1.53 6.08 1.34 6.08 0.78L6.08 0.78Q6.05-0.44 6.14-1.92 6.23-3.39 6.35-4.92 6.47-6.45 6.62-7.92 6.76-9.4 6.86-10.62L6.86-10.62 7.03-12.67Q4.98-12.67 4.1-12.78 3.22-12.89 3.22-13.35L3.22-13.35Q3.22-13.67 3.59-14.18L3.59-14.18Q4.1-14.89 4.75-15.89 5.4-16.89 5.99-17.85 6.59-18.8 7.04-19.53 7.5-20.26 7.62-20.43L7.62-20.43 8.08-27.15Q7.62-27.15 7.28-27.14 6.93-27.12 6.65-27.11 6.37-27.1 6.13-27.09 5.88-27.08 5.62-27.08L5.62-27.08Q4.44-27.08 3.94-27.21 3.44-27.34 3.44-27.71L3.44-27.71Q3.44-27.88 3.74-28.42 4.03-28.96 4.46-29.65 4.88-30.35 5.38-31.12 5.88-31.88 6.27-32.54L6.27-32.54 7.74-35.03 18.85-35.42Q21-35.5 23.12-35.58 25.24-35.67 27.04-35.74 28.83-35.82 30.13-35.88 31.42-35.94 31.93-35.96L31.93-35.96Q31.96-35.96 32.07-35.95 32.18-35.94 32.3-35.88 32.42-35.82 32.53-35.67 32.64-35.52 32.64-35.25L32.64-35.25Q32.64-35.11 32.3-34.28 31.96-33.45 31.32-31.81L31.32-31.81 30.25-28.98Q30.08-28.56 29.86-28.34 29.64-28.13 28.93-28.1L28.93-28.1Q28.1-28.08 27.25-28.03 26.39-27.98 25.49-27.93L25.49-27.93 18.07-27.56Q17.92-26.61 17.86-26.15 17.8-25.68 17.79-25.38 17.77-25.07 17.77-24.77 17.77-24.46 17.75-23.8L17.75-23.8Q17.72-23.34 17.69-23.02 17.65-22.71 17.61-22.4 17.58-22.09 17.54-21.75 17.5-21.41 17.48-20.9L17.48-20.9Q19.09-20.95 20.64-21 22.19-21.04 23.5-21.09 24.8-21.14 25.76-21.18 26.71-21.22 27.1-21.22L27.1-21.22Q27.29-21.22 27.54-21.07 27.78-20.92 27.78-20.51L27.78-20.51Q27.78-20.31 27.71-20.07ZM43.09-16.65L43.09-16.65Q43.09-14.89 43.47-13.12 43.85-11.35 44.72-9.94 45.6-8.52 47.04-7.64 48.48-6.76 50.61-6.76L50.61-6.76Q52.24-6.86 53.48-7.43 54.71-8.01 55.6-8.92 56.49-9.84 57.08-11.02 57.66-12.21 58.01-13.51 58.35-14.82 58.48-16.19 58.62-17.55 58.62-18.82L58.62-18.82Q58.62-20.56 58.15-22.18 57.69-23.8 56.76-25.05 55.83-26.29 54.45-27.05 53.07-27.81 51.24-27.81L51.24-27.81Q49.8-27.81 48.64-27.27 47.48-26.73 46.58-25.84 45.68-24.95 45.03-23.79 44.38-22.63 43.96-21.4 43.53-20.17 43.32-18.93 43.11-17.7 43.09-16.65ZM47.85 1.27L47.85 1.27Q44.19 1.27 41.31-0.1 38.43-1.46 36.44-3.8 34.45-6.13 33.38-9.19 32.32-12.26 32.32-15.67L32.32-15.67Q32.32-19.51 33.41-22.74 34.49-25.98 36.45-28.48 38.4-30.98 41.1-32.7 43.8-34.42 47.02-35.25L47.02-35.25Q47.31-35.25 47.47-35.72 47.63-36.18 47.75-36.74 47.87-37.3 48.04-37.77 48.22-38.23 48.53-38.23L48.53-38.23Q53.27-37.74 57.05-36.56 60.84-35.38 63.47-33.18 66.11-30.98 67.51-27.62 68.92-24.27 68.92-19.43L68.92-19.43Q68.92-16.33 68.16-13.6 67.4-10.86 66.04-8.56 64.67-6.25 62.75-4.43 60.84-2.61 58.49-1.34 56.15-0.07 53.45 0.6 50.75 1.27 47.85 1.27ZM85.2-34.99L85.2-34.99Q85.18-34.4 85.1-33.53 85.03-32.67 84.94-31.7 84.86-30.74 84.75-29.75 84.64-28.76 84.55-27.93 84.47-27.1 84.42-26.5 84.37-25.9 84.37-25.73L84.37-25.73Q84.27-24.22 84.16-22.92 84.05-21.63 83.93-20.36 83.81-19.09 83.67-17.74 83.54-16.38 83.39-14.75 83.25-13.11 83.06-11.11 82.88-9.11 82.69-6.52L82.69-6.52 92.79-7.54Q93.48-7.62 93.92-7.62L93.92-7.62Q94.45-7.62 94.59-7.45 94.72-7.28 94.72-6.91L94.72-6.91Q94.72-6.86 94.7-6.77 94.67-6.69 94.59-6.45 94.5-6.2 94.34-5.74 94.18-5.27 93.92-4.44L93.92-4.44 93.38-2.83Q93.11-2.05 92.88-1.43 92.65-0.81 92.3-0.35 91.96 0.1 91.45 0.37 90.94 0.63 90.13 0.71L90.13 0.71Q89.62 0.76 88.74 0.79 87.86 0.83 86.71 0.87 85.57 0.9 84.24 0.95 82.91 1 81.51 1.07L81.51 1.07Q80.15 1.12 78.75 1.14 77.36 1.15 76.12 1.17 74.87 1.2 73.82 1.22 72.77 1.25 72.09 1.27L72.09 1.27Q71.45 1.27 71.17 1.17 70.89 1.07 70.89 0.85L70.89 0.85Q70.89 0.59 71.06 0.09 71.24-0.42 71.5-1.04 71.77-1.66 72.1-2.33 72.43-3 72.75-3.64L72.75-3.64 73.41-12.35Q73.6-14.58 73.8-16.87 73.99-19.17 74.14-21.31L74.14-21.31 74.56-27.78Q74.7-30.08 74.75-31.12 74.8-32.15 74.8-32.25L74.8-32.25Q74.85-32.69 74.87-32.98 74.9-33.28 74.96-33.47 75.02-33.67 75.14-33.76 75.26-33.86 75.51-33.91L75.51-33.91 84.08-35.94Q84.35-36.04 84.74-36.04L84.74-36.04Q85-36.04 85.11-35.88 85.22-35.72 85.22-35.28L85.22-35.28Q85.22-35.23 85.21-35.14 85.2-35.06 85.2-34.99ZM109.9-34.94L109.9-34.94Q109.86-34.57 109.81-33.78 109.76-32.98 109.67-31.96 109.59-30.93 109.51-29.77 109.44-28.61 109.36-27.53 109.27-26.44 109.18-25.54 109.1-24.63 109.05-24.1L109.05-24.1 110.3-25.37 113.76-29.66Q114.4-30.47 115.03-31.24 115.67-32.01 116.17-32.63 116.67-33.25 116.98-33.67 117.3-34.08 117.35-34.13L117.35-34.13 128.19-35.03Q128.24-35.06 128.41-35.06L128.41-35.06 128.61-35.06Q129.17-35.06 129.17-34.77L129.17-34.77Q129.17-34.59 129.01-34.36 128.85-34.13 128.53-33.76L128.53-33.76Q128.14-33.3 127.4-32.43 126.65-31.57 125.77-30.53 124.89-29.49 123.95-28.38 123.01-27.27 122.21-26.33 121.4-25.39 120.83-24.71 120.26-24.02 120.11-23.83L120.11-23.83 118.57-22.36Q117.01-20.87 114.57-18.65L114.57-18.65Q115.32-17.87 116.19-16.96 117.06-16.04 117.85-15.2 118.64-14.36 119.29-13.67 119.94-12.99 120.26-12.65L120.26-12.65 127.8-3.91Q127.92-3.76 128.12-3.66 128.31-3.56 128.51-3.49 128.7-3.42 128.84-3.33 128.97-3.25 128.97-3.13L128.97-3.13Q128.97-2.98 128.65-2.66L128.65-2.66Q128.46-2.47 127.92-2.09 127.39-1.71 126.66-1.27 125.94-0.83 125.11-0.37 124.28 0.1 123.52 0.48 122.75 0.85 122.1 1.1 121.45 1.34 121.11 1.34L121.11 1.34Q120.6 1.34 120.04 0.89 119.47 0.44 118.69-0.48 117.91-1.39 116.84-2.81 115.76-4.22 114.25-6.13L114.25-6.13Q113.37-7.23 112.54-8.29 111.71-9.35 110.98-10.29 110.25-11.23 109.65-11.98 109.05-12.72 108.66-13.18L108.66-13.18Q108.46-12.99 108.24-12.81 108.02-12.62 107.83-12.43L107.83-12.43 106.97-1.95Q106.95-1.73 106.89-1.51 106.83-1.29 106.56-1.2L106.56-1.2 99.65 1.29Q99.38 1.39 98.94 1.54 98.5 1.68 98.09 1.68L98.09 1.68Q97.72 1.68 97.48 1.49 97.23 1.29 97.23 0.78L97.23 0.78Q97.36-0.66 97.54-2.95 97.72-5.25 97.93-8.19 98.14-11.13 98.37-14.61 98.6-18.09 98.87-21.92L98.87-21.92 99.55-32.2Q99.58-32.64 99.6-32.93 99.63-33.23 99.68-33.42 99.72-33.62 99.85-33.72 99.97-33.81 100.21-33.86L100.21-33.86 108.66-35.89Q108.98-35.99 109.32-35.99L109.32-35.99Q109.66-35.99 109.78-35.78 109.9-35.57 109.9-34.94ZM132.51-0.37L132.09-9.08Q132.09-9.11 132.08-9.13 132.07-9.16 132.07-9.18L132.07-9.18Q132.07-9.59 132.51-9.59L132.51-9.59Q132.73-9.59 133-9.38L133-9.38Q134.32-8.13 135.93-7.4 137.54-6.67 139.44-6.67L139.44-6.67Q139.96-6.67 140.62-6.77 141.27-6.88 141.86-7.14 142.45-7.4 142.85-7.81 143.25-8.23 143.25-8.86L143.25-8.86Q143.25-9.57 142.91-10.13 142.57-10.69 142.01-11.08L142.01-11.08Q141.79-11.23 141.35-11.57 140.91-11.91 140.35-12.35 139.78-12.79 139.17-13.29 138.56-13.79 138.01-14.25 137.47-14.7 137.03-15.06 136.59-15.43 136.37-15.63L136.37-15.63Q134.93-16.7 134.08-17.8 133.24-18.9 132.8-20.09 132.36-21.29 132.24-22.57 132.12-23.85 132.12-25.29L132.12-25.29Q132.12-27.44 133.14-29.37 134.17-31.3 136.04-32.73 137.91-34.16 140.52-35 143.13-35.84 146.33-35.84L146.33-35.84Q146.72-35.84 147.5-35.75 148.28-35.67 149.22-35.47 150.16-35.28 151.14-34.94 152.11-34.59 152.92-34.06L152.92-34.06Q153.19-33.86 153.35-33.67 153.51-33.47 153.55-33.06L153.55-33.06Q153.68-31.08 153.75-29.16 153.82-27.25 153.95-25.1L153.95-25.1Q153.95-24.68 153.77-24.55 153.6-24.41 153.33-24.41L153.33-24.41Q153.07-24.41 152.92-24.56L152.92-24.56Q152.21-25.27 151.45-25.95 150.7-26.64 149.87-27.16 149.04-27.69 148.1-28 147.16-28.32 146.06-28.32L146.06-28.32Q145.4-28.32 144.74-28.21 144.08-28.1 143.54-27.81 143.01-27.51 142.68-27 142.35-26.49 142.35-25.71L142.35-25.71Q142.35-24.88 142.56-24.27 142.76-23.66 143.59-23.12L143.59-23.12 149.45-19.14Q151.06-17.99 152.07-16.86 153.07-15.72 153.63-14.6 154.19-13.48 154.4-12.39 154.6-11.3 154.6-10.25L154.6-10.25Q154.6-8.54 154.04-7.03 153.48-5.52 152.5-4.24 151.53-2.95 150.22-1.94 148.92-0.93 147.43-0.21 145.94 0.51 144.34 0.89 142.74 1.27 141.2 1.27L141.2 1.27Q140 1.27 138.84 1.23 137.69 1.2 136.59 1.04 135.49 0.88 134.46 0.55 133.44 0.22 132.51-0.37L132.51-0.37ZM160.07 0L160.07 0Q159.78 0 159.48-0.06 159.19-0.12 158.95-0.28 158.7-0.44 158.54-0.72 158.39-1 158.39-1.46L158.39-1.46Q158.39-1.51 158.41-1.56 158.43-1.61 158.43-1.66L158.43-1.66 171.15-23.97Q171.15-24.05 170.63-24.11 170.1-24.17 169.29-24.21 168.47-24.24 167.49-24.28 166.52-24.32 165.62-24.33 164.73-24.34 164.04-24.35 163.34-24.37 163.1-24.37L163.1-24.37Q161.78-24.37 160.63-24.33 159.48-24.29 158.24-24.29L158.24-24.29Q157.97-24.29 157.78-24.48 157.58-24.66 157.58-24.9L157.58-24.9Q157.6-24.93 157.6-24.95L157.6-24.95Q157.6-25.02 157.63-25.1L157.63-25.1 160.78-32.64Q161-33.18 161.45-33.51 161.9-33.84 162.48-34.02 163.05-34.2 163.71-34.27 164.37-34.33 165-34.33L165-34.33Q167.66-34.33 170.25-34.22 172.84-34.11 175.41-33.98 177.99-33.86 180.57-33.75 183.14-33.64 185.78-33.64L185.78-33.64 185.78-32.64 173.89-10.42Q173.89-10.38 173.88-10.36 173.86-10.35 173.86-10.3L173.86-10.3Q173.86-10.03 174.11-10 174.35-9.96 174.55-9.96L174.55-9.96 179.38-9.96Q180.85-9.96 182.21-10.14 183.58-10.33 185.05-10.33L185.05-10.33Q185.34-10.33 185.58-10.14 185.83-9.96 185.83-9.69L185.83-9.69Q185.83-9.72 185.78-9.47L185.78-9.47 181.85-1.66Q181.65-1.07 181.13-0.73 180.6-0.39 179.86-0.22 179.11-0.05 178.21 0 177.31 0.05 176.35 0.05L176.35 0.05Q172.52 0.05 168.58 0.02 164.64 0 160.07 0ZM199.25-16.65L199.25-16.65Q199.25-14.89 199.63-13.12 200.01-11.35 200.89-9.94 201.77-8.52 203.21-7.64 204.65-6.76 206.77-6.76L206.77-6.76Q208.41-6.86 209.64-7.43 210.87-8.01 211.76-8.92 212.66-9.84 213.24-11.02 213.83-12.21 214.17-13.51 214.51-14.82 214.65-16.19 214.78-17.55 214.78-18.82L214.78-18.82Q214.78-20.56 214.32-22.18 213.85-23.8 212.92-25.05 212-26.29 210.62-27.05 209.24-27.81 207.41-27.81L207.41-27.81Q205.97-27.81 204.81-27.27 203.65-26.73 202.74-25.84 201.84-24.95 201.19-23.79 200.55-22.63 200.12-21.4 199.69-20.17 199.48-18.93 199.28-17.7 199.25-16.65ZM204.01 1.27L204.01 1.27Q200.35 1.27 197.47-0.1 194.59-1.46 192.6-3.8 190.61-6.13 189.55-9.19 188.49-12.26 188.49-15.67L188.49-15.67Q188.49-19.51 189.57-22.74 190.66-25.98 192.61-28.48 194.57-30.98 197.26-32.7 199.96-34.42 203.18-35.25L203.18-35.25Q203.48-35.25 203.63-35.72 203.79-36.18 203.92-36.74 204.04-37.3 204.21-37.77 204.38-38.23 204.7-38.23L204.7-38.23Q209.43-37.74 213.22-36.56 217-35.38 219.64-33.18 222.28-30.98 223.68-27.62 225.08-24.27 225.08-19.43L225.08-19.43Q225.08-16.33 224.33-13.6 223.57-10.86 222.2-8.56 220.83-6.25 218.92-4.43 217-2.61 214.66-1.34 212.31-0.07 209.62 0.6 206.92 1.27 204.01 1.27ZM249.2-14.43L249.2-32.71Q249.4-33.52 249.54-33.89 249.69-34.25 250.18-34.38L250.18-34.38 256.5-35.86Q256.79-35.96 257.14-35.96L257.14-35.96Q257.45-35.96 257.6-35.74 257.75-35.52 257.75-34.91L257.75-34.91Q257.6-34.33 257.5-33.12 257.4-31.91 257.36-30.47 257.31-29.03 257.28-27.58 257.26-26.12 257.26-25.05L257.26-25.05 257.26-23.71Q257.26-22.19 257.23-20.41 257.21-18.63 257.17-16.8 257.14-14.97 257.09-13.18 257.04-11.4 256.99-9.84L256.99-9.84 256.84-5.66Q256.82-5.54 256.82-5.44 256.82-5.35 256.82-5.25L256.82-5.25 256.82-4.88Q256.82-4.47 256.83-4.19 256.84-3.91 256.84-3.69L256.84-3.69Q256.84-3.44 256.81-3.25 256.77-3.05 256.62-2.87 256.48-2.69 256.22-2.49 255.96-2.29 255.52-2L255.52-2Q255.28-1.83 254.72-1.5 254.16-1.17 253.47-0.76 252.79-0.34 252.06 0.1 251.33 0.54 250.71 0.89 250.1 1.25 249.73 1.46 249.35 1.68 249.35 1.68L249.35 1.68 238.02-15.75 236.99-1.46Q236.97-1.27 236.91-1.05 236.85-0.83 236.58-0.71L236.58-0.71Q236.36-0.61 235.82-0.4 235.29-0.2 234.57 0.07 233.84 0.34 233.05 0.62 232.26 0.9 231.55 1.14 230.84 1.37 230.29 1.51 229.74 1.66 229.55 1.66L229.55 1.66Q229.18 1.66 228.94 1.46 228.69 1.27 228.69 0.76L228.69 0.76Q228.94-2.29 229.25-5.9 229.57-9.5 229.87-13.28 230.16-17.07 230.41-20.84 230.67-24.61 230.84-28L230.84-28Q230.84-28.1 230.54-28.65 230.23-29.2 229.85-29.85 229.47-30.49 229.17-31.07 228.86-31.64 228.86-31.79L228.86-31.79Q228.86-31.96 229.05-32.1 229.23-32.25 229.65-32.5L229.65-32.5 236.16-36.18Q236.24-36.18 236.37-36.21 236.51-36.23 236.6-36.23L236.6-36.23Q236.87-36.23 237.03-36.17 237.19-36.11 237.36-35.79L237.36-35.79 249.2-14.43ZM283.65-20.26L283.65-20.26Q283.55-19.92 283.28-19.3 283.01-18.68 282.66-17.9 282.3-17.11 281.9-16.22 281.5-15.33 281.11-14.43L281.11-14.43Q280.96-14.09 280.84-13.93 280.72-13.77 280.45-13.7 280.18-13.62 279.7-13.61 279.23-13.6 278.37-13.57L278.37-13.57 274.98-13.5 274.3-6.03 286.82-6.03 286.82-5.08Q286.77-5.03 286.41-4.43 286.04-3.83 285.55-3 285.06-2.17 284.53-1.33 283.99-0.49 283.62 0.02L283.62 0.02Q283.38 0.46 283.06 0.72 282.74 0.98 282.37 1.1 281.99 1.22 281.54 1.25 281.08 1.27 280.55 1.27L280.55 1.27Q278.35 1.27 275.97 1.17 273.59 1.07 271.22 0.93 268.85 0.78 266.59 0.6 264.34 0.42 262.41 0.22L262.41 0.22Q262.24 0.2 262.1 0.02 261.97-0.15 261.97-0.37L261.97-0.37Q261.87-0.37 262.1-0.78 262.33-1.2 262.75-1.86 263.16-2.51 263.66-3.36 264.16-4.2 264.63-5.05L264.63-5.05 265.02-10.55Q265.12-11.94 265.18-12.62 265.24-13.31 265.24-13.35L265.24-13.35Q263.77-13.38 263.05-13.5 262.33-13.62 262.33-14.04L262.33-14.04Q262.33-14.23 262.69-14.77 263.04-15.31 263.55-16 264.07-16.7 264.64-17.46 265.21-18.21 265.65-18.85L265.65-18.85 266.26-27.15 266.19-27.15Q265.65-27.12 265.21-27.11 264.77-27.1 264.41-27.1L264.41-27.1Q263.24-27.1 262.74-27.23 262.24-27.37 262.24-27.73L262.24-27.73Q262.24-27.91 262.53-28.44 262.82-28.98 263.26-29.68 263.7-30.37 264.19-31.14 264.68-31.91 265.07-32.57L265.07-32.57 266.53-35.06 276.74-35.06 288.77-35.94Q288.8-35.94 288.91-35.93 289.02-35.91 289.14-35.85 289.26-35.79 289.37-35.64 289.48-35.5 289.48-35.23L289.48-35.23 289.12-33.96Q288.94-33.42 288.7-32.82 288.46-32.23 288.16-31.59L288.16-31.59 287.09-28.76Q286.92-28.34 286.7-28.13 286.48-27.91 285.77-27.88L285.77-27.88Q283.92-27.83 281.63-27.72 279.35-27.61 276.4-27.51L276.4-27.51Q276.3-27.17 276.3-26.97 276.3-26.76 276.25-26.17L276.25-26.17 276.13-25.05Q276.08-24.27 275.98-23.36 275.88-22.46 275.74-21.14L275.74-21.14Q276.98-21.19 278.17-21.24 279.35-21.29 280.33-21.33 281.3-21.36 282.02-21.39 282.74-21.41 283.04-21.41L283.04-21.41Q283.23-21.41 283.48-21.26 283.72-21.12 283.72-20.7L283.72-20.7Q283.72-20.51 283.65-20.26Z"
                                                                      fill="#ffffff"
                                                                ></path>
                                                            </g>
                                                        </svg>
                                                    </g>
                                                </svg>
                                            </g>
                                            <g transform="matrix(1,0,0,1,0,68.58416972172184)">
                                                <svg viewBox="0 0 232.20979200000002 28.69272649525433"
                                                     height="28.69272649525433" width="232.20979200000002">
                                                    <g transform="matrix(1,0,0,1,0,0)">
                                                        <svg width="232.20979200000002"
                                                             viewBox="0.9321917808219178 -39.05 410.6778082191781 50.75"
                                                             height="28.69272649525433" data-palette-color="#ffffff">
                                                            <path d="M2.45 0L2.45 0Q1.5 0 1.13-0.75 0.75-1.5 1.1-2.15L1.1-2.15 16.25-38Q16.65-39.05 17.7-39.05L17.7-39.05Q18.7-39.05 19.15-38L19.15-38 34.35-2.15Q34.75-1.45 34.3-0.73 33.85 0 33 0L33 0Q32.5 0 32.18-0.23 31.85-0.45 31.6-0.95L31.6-0.95 16.9-36 18.5-36 3.85-0.95Q3.65-0.45 3.3-0.23 2.95 0 2.45 0ZM29.3-9.8L6.15-9.8 7.35-12.5 28.15-12.5 29.3-9.8ZM55.8 11.7L55.8 11.7Q55.15 11.7 54.72 11.28 54.3 10.85 54.3 10.2L54.3 10.2 54.3-13.95Q54.4-17.9 56.22-20.98 58.05-24.05 61.2-25.85 64.34-27.65 68.25-27.65L68.25-27.65Q72.25-27.65 75.42-25.83 78.59-24 80.42-20.83 82.25-17.65 82.25-13.65L82.25-13.65Q82.25-9.7 80.42-6.53 78.59-3.35 75.42-1.53 72.25 0.3 68.25 0.3L68.25 0.3Q64.65 0.3 61.77-1.25 58.9-2.8 57.3-5.4L57.3-5.4 57.3 10.2Q57.3 10.85 56.9 11.28 56.5 11.7 55.8 11.7ZM68.25-2.5L68.25-2.5Q71.4-2.5 73.87-3.98 76.34-5.45 77.8-7.98 79.25-10.5 79.25-13.65L79.25-13.65Q79.25-16.85 77.8-19.38 76.34-21.9 73.87-23.38 71.4-24.85 68.25-24.85L68.25-24.85Q65.15-24.85 62.65-23.38 60.15-21.9 58.72-19.38 57.3-16.85 57.3-13.65L57.3-13.65Q57.3-10.5 58.72-7.98 60.15-5.45 62.65-3.98 65.15-2.5 68.25-2.5ZM96.24 0L95.24 0Q93.34 0 91.87-1.05 90.39-2.1 89.57-3.95 88.74-5.8 88.74-8.25L88.74-8.25 88.74-37.55Q88.74-38.25 89.17-38.65 89.59-39.05 90.24-39.05L90.24-39.05Q90.94-39.05 91.34-38.65 91.74-38.25 91.74-37.55L91.74-37.55 91.74-8.25Q91.74-5.95 92.72-4.48 93.69-3 95.24-3L95.24-3 96.49-3Q97.04-3 97.39-2.6 97.74-2.2 97.74-1.5L97.74-1.5Q97.74-0.85 97.34-0.43 96.94 0 96.24 0L96.24 0ZM114.24 0.3L114.24 0.3Q110.24 0.3 107.07-1.53 103.89-3.35 102.07-6.53 100.24-9.7 100.24-13.65L100.24-13.65Q100.24-17.65 102.07-20.83 103.89-24 107.07-25.83 110.24-27.65 114.24-27.65L114.24-27.65Q118.24-27.65 121.39-25.83 124.54-24 126.37-20.83 128.19-17.65 128.19-13.65L128.19-13.65 126.94-11.65Q126.94-8.25 125.27-5.55 123.59-2.85 120.74-1.28 117.89 0.3 114.24 0.3ZM114.24-2.5L114.24-2.5Q117.39-2.5 119.87-3.98 122.34-5.45 123.77-7.98 125.19-10.5 125.19-13.65L125.19-13.65Q125.19-16.85 123.77-19.38 122.34-21.9 119.87-23.38 117.39-24.85 114.24-24.85L114.24-24.85Q111.14-24.85 108.64-23.38 106.14-21.9 104.69-19.38 103.24-16.85 103.24-13.65L103.24-13.65Q103.24-10.5 104.69-7.98 106.14-5.45 108.64-3.98 111.14-2.5 114.24-2.5ZM126.74 0L126.74 0Q126.04 0 125.62-0.43 125.19-0.85 125.19-1.5L125.19-1.5 125.19-10.65 126.14-13.65 128.19-13.65 128.19-1.5Q128.19-0.85 127.79-0.43 127.39 0 126.74 0ZM147.79 0.3L147.79 0.3Q143.89 0.3 140.81-1.55 137.74-3.4 135.96-6.55 134.19-9.7 134.19-13.65L134.19-13.65Q134.19-17.65 135.84-20.8 137.49-23.95 140.39-25.78 143.29-27.6 147.04-27.6L147.04-27.6Q150.24-27.6 152.89-26.38 155.54-25.15 157.49-22.65L157.49-22.65Q157.89-22.15 157.79-21.6 157.69-21.05 157.14-20.7L157.14-20.7Q156.69-20.35 156.14-20.43 155.59-20.5 155.19-21L155.19-21Q151.99-24.8 147.04-24.8L147.04-24.8Q144.09-24.8 141.86-23.35 139.64-21.9 138.41-19.4 137.19-16.9 137.19-13.65L137.19-13.65Q137.19-10.5 138.54-7.98 139.89-5.45 142.26-3.98 144.64-2.5 147.79-2.5L147.79-2.5Q149.84-2.5 151.66-3.1 153.49-3.7 154.84-4.95L154.84-4.95Q155.29-5.35 155.84-5.4 156.39-5.45 156.79-5.05L156.79-5.05Q157.29-4.6 157.31-4.03 157.34-3.45 156.89-3.05L156.89-3.05Q153.24 0.3 147.79 0.3ZM177.44 0.25L177.44 0.25Q173.49 0.25 170.41-1.53 167.34-3.3 165.59-6.45 163.84-9.6 163.84-13.65L163.84-13.65Q163.84-17.75 165.49-20.88 167.14-24 170.03-25.8 172.94-27.6 176.69-27.6L176.69-27.6Q180.39-27.6 183.24-25.88 186.09-24.15 187.69-21.13 189.29-18.1 189.29-14.15L189.29-14.15Q189.29-13.5 188.89-13.13 188.49-12.75 187.84-12.75L187.84-12.75 165.84-12.75 165.84-15.35 188.64-15.35 186.44-13.7Q186.54-16.95 185.34-19.45 184.14-21.95 181.91-23.38 179.69-24.8 176.69-24.8L176.69-24.8Q173.84-24.8 171.61-23.38 169.39-21.95 168.11-19.45 166.84-16.95 166.84-13.65L166.84-13.65Q166.84-10.4 168.19-7.9 169.53-5.4 171.94-3.98 174.34-2.55 177.44-2.55L177.44-2.55Q179.39-2.55 181.36-3.23 183.34-3.9 184.49-5L184.49-5Q184.89-5.4 185.46-5.43 186.04-5.45 186.44-5.1L186.44-5.1Q186.99-4.65 187.01-4.1 187.04-3.55 186.54-3.1L186.54-3.1Q184.94-1.65 182.36-0.7 179.78 0.25 177.44 0.25ZM214.18 0L214.18 0Q213.53 0 213.11-0.43 212.68-0.85 212.68-1.5L212.68-1.5 212.68-27.4Q212.68-30.8 213.73-33.43 214.78-36.05 217.01-37.55 219.23-39.05 222.68-39.05L222.68-39.05Q223.38-39.05 223.78-38.68 224.18-38.3 224.18-37.7L224.18-37.7Q224.18-37.1 223.78-36.73 223.38-36.35 222.68-36.35L222.68-36.35Q220.13-36.35 218.61-35.18 217.08-34 216.41-31.98 215.73-29.95 215.73-27.4L215.73-27.4 215.73-1.5Q215.73-0.85 215.31-0.43 214.88 0 214.18 0ZM222.33-23.65L208.78-23.65Q208.18-23.65 207.81-24.03 207.43-24.4 207.43-25L207.43-25Q207.43-25.6 207.81-25.98 208.18-26.35 208.78-26.35L208.78-26.35 222.33-26.35Q222.93-26.35 223.31-25.98 223.68-25.6 223.68-25L223.68-25Q223.68-24.4 223.31-24.03 222.93-23.65 222.33-23.65L222.33-23.65ZM240.18 0.3L240.18 0.3Q236.18 0.3 233-1.53 229.83-3.35 228-6.53 226.18-9.7 226.18-13.65L226.18-13.65Q226.18-17.65 228-20.83 229.83-24 233-25.83 236.18-27.65 240.18-27.65L240.18-27.65Q244.18-27.65 247.33-25.83 250.48-24 252.3-20.83 254.13-17.65 254.13-13.65L254.13-13.65Q254.13-9.7 252.3-6.53 250.48-3.35 247.33-1.53 244.18 0.3 240.18 0.3ZM240.18-2.5L240.18-2.5Q243.33-2.5 245.8-3.98 248.28-5.45 249.7-7.98 251.13-10.5 251.13-13.7L251.13-13.7Q251.13-16.85 249.7-19.38 248.28-21.9 245.8-23.38 243.33-24.85 240.18-24.85L240.18-24.85Q237.08-24.85 234.58-23.38 232.08-21.9 230.63-19.38 229.18-16.85 229.18-13.65L229.18-13.65Q229.18-10.5 230.63-7.98 232.08-5.45 234.58-3.98 237.08-2.5 240.18-2.5ZM264.63-16.7L262.63-16.7Q262.93-19.9 264.38-22.38 265.83-24.85 268.13-26.25 270.43-27.65 273.23-27.65L273.23-27.65Q275.13-27.65 276.18-27.2 277.23-26.75 276.98-25.6L276.98-25.6Q276.83-24.85 276.28-24.7 275.73-24.55 274.95-24.68 274.18-24.8 273.23-24.8L273.23-24.8Q270.73-24.8 268.78-23.75 266.83-22.7 265.73-20.88 264.63-19.05 264.63-16.7L264.63-16.7ZM263.13 0L263.13 0Q262.48 0 262.05-0.43 261.63-0.85 261.63-1.5L261.63-1.5 261.63-25.85Q261.63-26.55 262.05-26.95 262.48-27.35 263.13-27.35L263.13-27.35Q263.83-27.35 264.23-26.95 264.63-26.55 264.63-25.85L264.63-25.85 264.63-1.5Q264.63-0.85 264.23-0.43 263.83 0 263.13 0ZM301.92 0L301.92 0Q301.27 0 300.85-0.43 300.42-0.85 300.42-1.5L300.42-1.5 300.42-27.4Q300.42-30.8 301.47-33.43 302.52-36.05 304.75-37.55 306.97-39.05 310.42-39.05L310.42-39.05Q311.12-39.05 311.52-38.68 311.92-38.3 311.92-37.7L311.92-37.7Q311.92-37.1 311.52-36.73 311.12-36.35 310.42-36.35L310.42-36.35Q307.87-36.35 306.35-35.18 304.82-34 304.15-31.98 303.47-29.95 303.47-27.4L303.47-27.4 303.47-1.5Q303.47-0.85 303.05-0.43 302.62 0 301.92 0ZM310.07-23.65L296.52-23.65Q295.92-23.65 295.55-24.03 295.17-24.4 295.17-25L295.17-25Q295.17-25.6 295.55-25.98 295.92-26.35 296.52-26.35L296.52-26.35 310.07-26.35Q310.67-26.35 311.05-25.98 311.42-25.6 311.42-25L311.42-25Q311.42-24.4 311.05-24.03 310.67-23.65 310.07-23.65L310.07-23.65ZM327.92 0.3L327.92 0.3Q323.92 0.3 320.74-1.53 317.57-3.35 315.74-6.53 313.92-9.7 313.92-13.65L313.92-13.65Q313.92-17.65 315.74-20.83 317.57-24 320.74-25.83 323.92-27.65 327.92-27.65L327.92-27.65Q331.92-27.65 335.07-25.83 338.22-24 340.04-20.83 341.87-17.65 341.87-13.65L341.87-13.65Q341.87-9.7 340.04-6.53 338.22-3.35 335.07-1.53 331.92 0.3 327.92 0.3ZM327.92-2.5L327.92-2.5Q331.07-2.5 333.54-3.98 336.02-5.45 337.44-7.98 338.87-10.5 338.87-13.7L338.87-13.7Q338.87-16.85 337.44-19.38 336.02-21.9 333.54-23.38 331.07-24.85 327.92-24.85L327.92-24.85Q324.82-24.85 322.32-23.38 319.82-21.9 318.37-19.38 316.92-16.85 316.92-13.65L316.92-13.65Q316.92-10.5 318.37-7.98 319.82-5.45 322.32-3.98 324.82-2.5 327.92-2.5ZM355.87 0L354.87 0Q352.97 0 351.49-1.05 350.01-2.1 349.19-3.95 348.37-5.8 348.37-8.25L348.37-8.25 348.37-37.55Q348.37-38.25 348.79-38.65 349.22-39.05 349.87-39.05L349.87-39.05Q350.56-39.05 350.97-38.65 351.37-38.25 351.37-37.55L351.37-37.55 351.37-8.25Q351.37-5.95 352.34-4.48 353.31-3 354.87-3L354.87-3 356.12-3Q356.67-3 357.01-2.6 357.37-2.2 357.37-1.5L357.37-1.5Q357.37-0.85 356.97-0.43 356.56 0 355.87 0L355.87 0ZM383.21-25.2L364.86-8.55 363.06-10.55 381.36-27.2Q381.86-27.6 382.34-27.6 382.81-27.6 383.26-27.1L383.26-27.1Q383.71-26.6 383.71-26.1 383.71-25.6 383.21-25.2L383.21-25.2ZM364.36 0L364.36 0Q363.71 0 363.29-0.43 362.86-0.85 362.86-1.5L362.86-1.5 362.86-37.55Q362.86-38.25 363.29-38.65 363.71-39.05 364.36-39.05L364.36-39.05Q365.06-39.05 365.46-38.65 365.86-38.25 365.86-37.55L365.86-37.55 365.86-1.5Q365.86-0.85 365.46-0.43 365.06 0 364.36 0ZM383.31-0.25L383.31-0.25Q382.81 0.2 382.29 0.13 381.76 0.05 381.36-0.45L381.36-0.45 369.51-14.95 371.66-16.7 383.51-2.2Q383.91-1.7 383.89-1.2 383.86-0.7 383.31-0.25ZM400.86 0.3L400.86 0.3Q398.26 0.3 395.41-0.65 392.56-1.6 390.66-3.85L390.66-3.85Q390.26-4.35 390.33-4.93 390.41-5.5 390.96-5.9L390.96-5.9Q391.46-6.25 392.04-6.15 392.61-6.05 392.96-5.6L392.96-5.6Q394.41-3.9 396.49-3.23 398.56-2.55 401.01-2.55L401.01-2.55Q405.21-2.55 406.96-4.05 408.71-5.55 408.71-7.55L408.71-7.55Q408.71-9.5 406.83-10.78 404.96-12.05 401.06-12.6L401.06-12.6Q396.06-13.3 393.66-15.3 391.26-17.3 391.26-19.95L391.26-19.95Q391.26-22.45 392.51-24.18 393.76-25.9 395.94-26.78 398.11-27.65 400.91-27.65L400.91-27.65Q404.31-27.65 406.66-26.43 409.01-25.2 410.46-23.15L410.46-23.15Q410.86-22.65 410.74-22.08 410.61-21.5 409.96-21.15L409.96-21.15Q409.46-20.9 408.91-21 408.36-21.1 407.96-21.6L407.96-21.6Q406.71-23.2 404.94-24.03 403.16-24.85 400.81-24.85L400.81-24.85Q397.66-24.85 395.91-23.5 394.16-22.15 394.16-20.25L394.16-20.25Q394.16-18.95 394.88-17.98 395.61-17 397.26-16.32 398.91-15.65 401.66-15.25L401.66-15.25Q405.41-14.75 407.58-13.55 409.76-12.35 410.69-10.78 411.61-9.2 411.61-7.4L411.61-7.4Q411.61-5.05 410.11-3.3 408.61-1.55 406.16-0.63 403.71 0.3 400.86 0.3Z"
                                                                  opacity="1" transform="matrix(1,0,0,1,0,0)"
                                                                  fill="#ffffff" class="undefined-text-1"
                                                                  id="text-1"></path>
                                                        </svg>
                                                    </g>
                                                </svg>
                                            </g>
                                        </svg>
                                    </g>
                                </svg>
                            </g>
                            <g>
                                <svg viewBox="0 0 134.43667057186107 134.43667057186107" height="134.43667057186107"
                                     width="134.43667057186107">
                                    <g>
                                        <svg xmlns="http://www.w3.org/2000/svg" xmlns:xlink="http://www.w3.org/1999/xlink" version="1.1" x="0" y="0" viewBox="0 0 100 100" style="enable-background:new 0 0 100 100;" xml:space="preserve" height="134.43667057186107" width="134.43667057186107" class="icon-icon-0" data-fill-palette-color="accent" id="icon-0"><polygon points="100,0 25,50 43.75,62.5 0,100 75,62.5 56.25,50 " fill="#ffffff" ></polygon></svg>
                                    </g>
                                </svg>
                            </g>
                        </svg>
                    </g>
                </svg>
                <rect width="395.52" height="94.7547702051595" fill="none" stroke="none" visibility="hidden"></rect>
            </g>
        </svg>
    </g>
</svg>
