<svg xmlns="http://www.w3.org/2000/svg" version="1.1" xmlns:xlink="http://www.w3.org/1999/xlink"
     width="1000" height="244" viewBox="0 0 1000 244">
    <g transform="matrix(1,0,0,1,-0.6060606060606233,0.05768753607462429)">
        <svg viewBox="0 0 396 97" data-background-color="#ffffff" preserveAspectRatio="xMidYMid meet" height="244"
             width="1000" xmlns="http://www.w3.org/2000/svg" xmlns:xlink="http://www.w3.org/1999/xlink">
            <defs></defs>
            <g id="tight-bounds" transform="matrix(1,0,0,1,0.2400000000000091,-0.022933159832945194)">
                <svg viewBox="0 0 395.52 97.04586631966589" height="97.04586631966589" width="395.52">
                    <g>
                        <svg viewBox="0 0 565.4654077327675 138.74413523267984" height="97.04586631966589"
                             width="395.52">
                            <g>
                                <rect width="5.00373051848594" height="100.89569892101535" x="151.84290622348072"
                                      y="18.924218155832243" fill="#6f605b" opacity="1" stroke-width="0"
                                      stroke="transparent" fill-opacity="1" class="rect-o-0"
                                      rx="1%" id="o-0"
                                ></rect>
                            </g>
                            <g transform="matrix(1,0,0,1,169.94540773276756,19.175202481506403)">
                                <svg viewBox="0 0 395.52 100.39373026966703" height="100.39373026966703" width="395.52">
                                    <g>
                                        <svg viewBox="0 0 395.52 100.39373026966703" height="100.39373026966703"
                                             width="395.52">
                                            <g>
                                                <svg viewBox="0 0 395.52 55.48539873092094" height="55.48539873092094"
                                                     width="395.52">
                                                    <g transform="matrix(1,0,0,1,0,0)">
                                                        <svg width="395.52"
                                                             viewBox="3.2200000286102295 -38.22999954223633 286.260009765625 39.939998626708984"
                                                             height="55.48539873092094" data-palette-color="#6f605b">
                                                            <g class="undefined-text-0"
                                                               id="text-0">
                                                                <path d="M27.71-20.07L27.71-20.07Q27.61-19.7 27.34-19.02 27.08-18.33 26.73-17.47 26.39-16.6 25.98-15.64 25.56-14.67 25.17-13.75L25.17-13.75Q25-13.33 24.77-13.13 24.54-12.94 23.83-12.92L23.83-12.92 16.7-12.79 15.82-1.95Q15.8-1.73 15.7-1.53 15.6-1.32 15.41-1.2L15.41-1.2Q15.33-1.15 14.83-0.92 14.33-0.68 13.57-0.37 12.82-0.05 11.91 0.32 11.01 0.68 10.13 0.99 9.25 1.29 8.52 1.5 7.79 1.71 7.37 1.71L7.37 1.71Q6.88 1.71 6.48 1.53 6.08 1.34 6.08 0.78L6.08 0.78Q6.05-0.44 6.14-1.92 6.23-3.39 6.35-4.92 6.47-6.45 6.62-7.92 6.76-9.4 6.86-10.62L6.86-10.62 7.03-12.67Q4.98-12.67 4.1-12.78 3.22-12.89 3.22-13.35L3.22-13.35Q3.22-13.67 3.59-14.18L3.59-14.18Q4.1-14.89 4.75-15.89 5.4-16.89 5.99-17.85 6.59-18.8 7.04-19.53 7.5-20.26 7.62-20.43L7.62-20.43 8.08-27.15Q7.62-27.15 7.28-27.14 6.93-27.12 6.65-27.11 6.37-27.1 6.13-27.09 5.88-27.08 5.62-27.08L5.62-27.08Q4.44-27.08 3.94-27.21 3.44-27.34 3.44-27.71L3.44-27.71Q3.44-27.88 3.74-28.42 4.03-28.96 4.46-29.65 4.88-30.35 5.38-31.12 5.88-31.88 6.27-32.54L6.27-32.54 7.74-35.03 18.85-35.42Q21-35.5 23.12-35.58 25.24-35.67 27.04-35.74 28.83-35.82 30.13-35.88 31.42-35.94 31.93-35.96L31.93-35.96Q31.96-35.96 32.07-35.95 32.18-35.94 32.3-35.88 32.42-35.82 32.53-35.67 32.64-35.52 32.64-35.25L32.64-35.25Q32.64-35.11 32.3-34.28 31.96-33.45 31.32-31.81L31.32-31.81 30.25-28.98Q30.08-28.56 29.86-28.34 29.64-28.13 28.93-28.1L28.93-28.1Q28.1-28.08 27.25-28.03 26.39-27.98 25.49-27.93L25.49-27.93 18.07-27.56Q17.92-26.61 17.86-26.15 17.8-25.68 17.79-25.38 17.77-25.07 17.77-24.77 17.77-24.46 17.75-23.8L17.75-23.8Q17.72-23.34 17.69-23.02 17.65-22.71 17.61-22.4 17.58-22.09 17.54-21.75 17.5-21.41 17.48-20.9L17.48-20.9Q19.09-20.95 20.64-21 22.19-21.04 23.5-21.09 24.8-21.14 25.76-21.18 26.71-21.22 27.1-21.22L27.1-21.22Q27.29-21.22 27.54-21.07 27.78-20.92 27.78-20.51L27.78-20.51Q27.78-20.31 27.71-20.07ZM43.09-16.65L43.09-16.65Q43.09-14.89 43.47-13.12 43.85-11.35 44.72-9.94 45.6-8.52 47.04-7.64 48.48-6.76 50.61-6.76L50.61-6.76Q52.24-6.86 53.48-7.43 54.71-8.01 55.6-8.92 56.49-9.84 57.08-11.02 57.66-12.21 58.01-13.51 58.35-14.82 58.48-16.19 58.62-17.55 58.62-18.82L58.62-18.82Q58.62-20.56 58.15-22.18 57.69-23.8 56.76-25.05 55.83-26.29 54.45-27.05 53.07-27.81 51.24-27.81L51.24-27.81Q49.8-27.81 48.64-27.27 47.48-26.73 46.58-25.84 45.68-24.95 45.03-23.79 44.38-22.63 43.96-21.4 43.53-20.17 43.32-18.93 43.11-17.7 43.09-16.65ZM47.85 1.27L47.85 1.27Q44.19 1.27 41.31-0.1 38.43-1.46 36.44-3.8 34.45-6.13 33.38-9.19 32.32-12.26 32.32-15.67L32.32-15.67Q32.32-19.51 33.41-22.74 34.49-25.98 36.45-28.48 38.4-30.98 41.1-32.7 43.8-34.42 47.02-35.25L47.02-35.25Q47.31-35.25 47.47-35.72 47.63-36.18 47.75-36.74 47.87-37.3 48.04-37.77 48.22-38.23 48.53-38.23L48.53-38.23Q53.27-37.74 57.05-36.56 60.84-35.38 63.47-33.18 66.11-30.98 67.51-27.62 68.92-24.27 68.92-19.43L68.92-19.43Q68.92-16.33 68.16-13.6 67.4-10.86 66.04-8.56 64.67-6.25 62.75-4.43 60.84-2.61 58.49-1.34 56.15-0.07 53.45 0.6 50.75 1.27 47.85 1.27ZM85.2-34.99L85.2-34.99Q85.18-34.4 85.1-33.53 85.03-32.67 84.94-31.7 84.86-30.74 84.75-29.75 84.64-28.76 84.55-27.93 84.47-27.1 84.42-26.5 84.37-25.9 84.37-25.73L84.37-25.73Q84.27-24.22 84.16-22.92 84.05-21.63 83.93-20.36 83.81-19.09 83.67-17.74 83.54-16.38 83.39-14.75 83.25-13.11 83.06-11.11 82.88-9.11 82.69-6.52L82.69-6.52 92.79-7.54Q93.48-7.62 93.92-7.62L93.92-7.62Q94.45-7.62 94.59-7.45 94.72-7.28 94.72-6.91L94.72-6.91Q94.72-6.86 94.7-6.77 94.67-6.69 94.59-6.45 94.5-6.2 94.34-5.74 94.18-5.27 93.92-4.44L93.92-4.44 93.38-2.83Q93.11-2.05 92.88-1.43 92.65-0.81 92.3-0.35 91.96 0.1 91.45 0.37 90.94 0.63 90.13 0.71L90.13 0.71Q89.62 0.76 88.74 0.79 87.86 0.83 86.71 0.87 85.57 0.9 84.24 0.95 82.91 1 81.51 1.07L81.51 1.07Q80.15 1.12 78.75 1.14 77.36 1.15 76.12 1.17 74.87 1.2 73.82 1.22 72.77 1.25 72.09 1.27L72.09 1.27Q71.45 1.27 71.17 1.17 70.89 1.07 70.89 0.85L70.89 0.85Q70.89 0.59 71.06 0.09 71.24-0.42 71.5-1.04 71.77-1.66 72.1-2.33 72.43-3 72.75-3.64L72.75-3.64 73.41-12.35Q73.6-14.58 73.8-16.87 73.99-19.17 74.14-21.31L74.14-21.31 74.56-27.78Q74.7-30.08 74.75-31.12 74.8-32.15 74.8-32.25L74.8-32.25Q74.85-32.69 74.87-32.98 74.9-33.28 74.96-33.47 75.02-33.67 75.14-33.76 75.26-33.86 75.51-33.91L75.51-33.91 84.08-35.94Q84.35-36.04 84.74-36.04L84.74-36.04Q85-36.04 85.11-35.88 85.22-35.72 85.22-35.28L85.22-35.28Q85.22-35.23 85.21-35.14 85.2-35.06 85.2-34.99ZM109.9-34.94L109.9-34.94Q109.86-34.57 109.81-33.78 109.76-32.98 109.67-31.96 109.59-30.93 109.51-29.77 109.44-28.61 109.36-27.53 109.27-26.44 109.18-25.54 109.1-24.63 109.05-24.1L109.05-24.1 110.3-25.37 113.76-29.66Q114.4-30.47 115.03-31.24 115.67-32.01 116.17-32.63 116.67-33.25 116.98-33.67 117.3-34.08 117.35-34.13L117.35-34.13 128.19-35.03Q128.24-35.06 128.41-35.06L128.41-35.06 128.61-35.06Q129.17-35.06 129.17-34.77L129.17-34.77Q129.17-34.59 129.01-34.36 128.85-34.13 128.53-33.76L128.53-33.76Q128.14-33.3 127.4-32.43 126.65-31.57 125.77-30.53 124.89-29.49 123.95-28.38 123.01-27.27 122.21-26.33 121.4-25.39 120.83-24.71 120.26-24.02 120.11-23.83L120.11-23.83 118.57-22.36Q117.01-20.87 114.57-18.65L114.57-18.65Q115.32-17.87 116.19-16.96 117.06-16.04 117.85-15.2 118.64-14.36 119.29-13.67 119.94-12.99 120.26-12.65L120.26-12.65 127.8-3.91Q127.92-3.76 128.12-3.66 128.31-3.56 128.51-3.49 128.7-3.42 128.84-3.33 128.97-3.25 128.97-3.13L128.97-3.13Q128.97-2.98 128.65-2.66L128.65-2.66Q128.46-2.47 127.92-2.09 127.39-1.71 126.66-1.27 125.94-0.83 125.11-0.37 124.28 0.1 123.52 0.48 122.75 0.85 122.1 1.1 121.45 1.34 121.11 1.34L121.11 1.34Q120.6 1.34 120.04 0.89 119.47 0.44 118.69-0.48 117.91-1.39 116.84-2.81 115.76-4.22 114.25-6.13L114.25-6.13Q113.37-7.23 112.54-8.29 111.71-9.35 110.98-10.29 110.25-11.23 109.65-11.98 109.05-12.72 108.66-13.18L108.66-13.18Q108.46-12.99 108.24-12.81 108.02-12.62 107.83-12.43L107.83-12.43 106.97-1.95Q106.95-1.73 106.89-1.51 106.83-1.29 106.56-1.2L106.56-1.2 99.65 1.29Q99.38 1.39 98.94 1.54 98.5 1.68 98.09 1.68L98.09 1.68Q97.72 1.68 97.48 1.49 97.23 1.29 97.23 0.78L97.23 0.78Q97.36-0.66 97.54-2.95 97.72-5.25 97.93-8.19 98.14-11.13 98.37-14.61 98.6-18.09 98.87-21.92L98.87-21.92 99.55-32.2Q99.58-32.64 99.6-32.93 99.63-33.23 99.68-33.42 99.72-33.62 99.85-33.72 99.97-33.81 100.21-33.86L100.21-33.86 108.66-35.89Q108.98-35.99 109.32-35.99L109.32-35.99Q109.66-35.99 109.78-35.78 109.9-35.57 109.9-34.94ZM132.51-0.37L132.09-9.08Q132.09-9.11 132.08-9.13 132.07-9.16 132.07-9.18L132.07-9.18Q132.07-9.59 132.51-9.59L132.51-9.59Q132.73-9.59 133-9.38L133-9.38Q134.32-8.13 135.93-7.4 137.54-6.67 139.44-6.67L139.44-6.67Q139.96-6.67 140.62-6.77 141.27-6.88 141.86-7.14 142.45-7.4 142.85-7.81 143.25-8.23 143.25-8.86L143.25-8.86Q143.25-9.57 142.91-10.13 142.57-10.69 142.01-11.08L142.01-11.08Q141.79-11.23 141.35-11.57 140.91-11.91 140.35-12.35 139.78-12.79 139.17-13.29 138.56-13.79 138.01-14.25 137.47-14.7 137.03-15.06 136.59-15.43 136.37-15.63L136.37-15.63Q134.93-16.7 134.08-17.8 133.24-18.9 132.8-20.09 132.36-21.29 132.24-22.57 132.12-23.85 132.12-25.29L132.12-25.29Q132.12-27.44 133.14-29.37 134.17-31.3 136.04-32.73 137.91-34.16 140.52-35 143.13-35.84 146.33-35.84L146.33-35.84Q146.72-35.84 147.5-35.75 148.28-35.67 149.22-35.47 150.16-35.28 151.14-34.94 152.11-34.59 152.92-34.06L152.92-34.06Q153.19-33.86 153.35-33.67 153.51-33.47 153.55-33.06L153.55-33.06Q153.68-31.08 153.75-29.16 153.82-27.25 153.95-25.1L153.95-25.1Q153.95-24.68 153.77-24.55 153.6-24.41 153.33-24.41L153.33-24.41Q153.07-24.41 152.92-24.56L152.92-24.56Q152.21-25.27 151.45-25.95 150.7-26.64 149.87-27.16 149.04-27.69 148.1-28 147.16-28.32 146.06-28.32L146.06-28.32Q145.4-28.32 144.74-28.21 144.08-28.1 143.54-27.81 143.01-27.51 142.68-27 142.35-26.49 142.35-25.71L142.35-25.71Q142.35-24.88 142.56-24.27 142.76-23.66 143.59-23.12L143.59-23.12 149.45-19.14Q151.06-17.99 152.07-16.86 153.07-15.72 153.63-14.6 154.19-13.48 154.4-12.39 154.6-11.3 154.6-10.25L154.6-10.25Q154.6-8.54 154.04-7.03 153.48-5.52 152.5-4.24 151.53-2.95 150.22-1.94 148.92-0.93 147.43-0.21 145.94 0.51 144.34 0.89 142.74 1.27 141.2 1.27L141.2 1.27Q140 1.27 138.84 1.23 137.69 1.2 136.59 1.04 135.49 0.88 134.46 0.55 133.44 0.22 132.51-0.37L132.51-0.37ZM160.07 0L160.07 0Q159.78 0 159.48-0.06 159.19-0.12 158.95-0.28 158.7-0.44 158.54-0.72 158.39-1 158.39-1.46L158.39-1.46Q158.39-1.51 158.41-1.56 158.43-1.61 158.43-1.66L158.43-1.66 171.15-23.97Q171.15-24.05 170.63-24.11 170.1-24.17 169.29-24.21 168.47-24.24 167.49-24.28 166.52-24.32 165.62-24.33 164.73-24.34 164.04-24.35 163.34-24.37 163.1-24.37L163.1-24.37Q161.78-24.37 160.63-24.33 159.48-24.29 158.24-24.29L158.24-24.29Q157.97-24.29 157.78-24.48 157.58-24.66 157.58-24.9L157.58-24.9Q157.6-24.93 157.6-24.95L157.6-24.95Q157.6-25.02 157.63-25.1L157.63-25.1 160.78-32.64Q161-33.18 161.45-33.51 161.9-33.84 162.48-34.02 163.05-34.2 163.71-34.27 164.37-34.33 165-34.33L165-34.33Q167.66-34.33 170.25-34.22 172.84-34.11 175.41-33.98 177.99-33.86 180.57-33.75 183.14-33.64 185.78-33.64L185.78-33.64 185.78-32.64 173.89-10.42Q173.89-10.38 173.88-10.36 173.86-10.35 173.86-10.3L173.86-10.3Q173.86-10.03 174.11-10 174.35-9.96 174.55-9.96L174.55-9.96 179.38-9.96Q180.85-9.96 182.21-10.14 183.58-10.33 185.05-10.33L185.05-10.33Q185.34-10.33 185.58-10.14 185.83-9.96 185.83-9.69L185.83-9.69Q185.83-9.72 185.78-9.47L185.78-9.47 181.85-1.66Q181.65-1.07 181.13-0.73 180.6-0.39 179.86-0.22 179.11-0.05 178.21 0 177.31 0.05 176.35 0.05L176.35 0.05Q172.52 0.05 168.58 0.02 164.64 0 160.07 0ZM199.25-16.65L199.25-16.65Q199.25-14.89 199.63-13.12 200.01-11.35 200.89-9.94 201.77-8.52 203.21-7.64 204.65-6.76 206.77-6.76L206.77-6.76Q208.41-6.86 209.64-7.43 210.87-8.01 211.76-8.92 212.66-9.84 213.24-11.02 213.83-12.21 214.17-13.51 214.51-14.82 214.65-16.19 214.78-17.55 214.78-18.82L214.78-18.82Q214.78-20.56 214.32-22.18 213.85-23.8 212.92-25.05 212-26.29 210.62-27.05 209.24-27.81 207.41-27.81L207.41-27.81Q205.97-27.81 204.81-27.27 203.65-26.73 202.74-25.84 201.84-24.95 201.19-23.79 200.55-22.63 200.12-21.4 199.69-20.17 199.48-18.93 199.28-17.7 199.25-16.65ZM204.01 1.27L204.01 1.27Q200.35 1.27 197.47-0.1 194.59-1.46 192.6-3.8 190.61-6.13 189.55-9.19 188.49-12.26 188.49-15.67L188.49-15.67Q188.49-19.51 189.57-22.74 190.66-25.98 192.61-28.48 194.57-30.98 197.26-32.7 199.96-34.42 203.18-35.25L203.18-35.25Q203.48-35.25 203.63-35.72 203.79-36.18 203.92-36.74 204.04-37.3 204.21-37.77 204.38-38.23 204.7-38.23L204.7-38.23Q209.43-37.74 213.22-36.56 217-35.38 219.64-33.18 222.28-30.98 223.68-27.62 225.08-24.27 225.08-19.43L225.08-19.43Q225.08-16.33 224.33-13.6 223.57-10.86 222.2-8.56 220.83-6.25 218.92-4.43 217-2.61 214.66-1.34 212.31-0.07 209.62 0.6 206.92 1.27 204.01 1.27ZM249.2-14.43L249.2-32.71Q249.4-33.52 249.54-33.89 249.69-34.25 250.18-34.38L250.18-34.38 256.5-35.86Q256.79-35.96 257.14-35.96L257.14-35.96Q257.45-35.96 257.6-35.74 257.75-35.52 257.75-34.91L257.75-34.91Q257.6-34.33 257.5-33.12 257.4-31.91 257.36-30.47 257.31-29.03 257.28-27.58 257.26-26.12 257.26-25.05L257.26-25.05 257.26-23.71Q257.26-22.19 257.23-20.41 257.21-18.63 257.17-16.8 257.14-14.97 257.09-13.18 257.04-11.4 256.99-9.84L256.99-9.84 256.84-5.66Q256.82-5.54 256.82-5.44 256.82-5.35 256.82-5.25L256.82-5.25 256.82-4.88Q256.82-4.47 256.83-4.19 256.84-3.91 256.84-3.69L256.84-3.69Q256.84-3.44 256.81-3.25 256.77-3.05 256.62-2.87 256.48-2.69 256.22-2.49 255.96-2.29 255.52-2L255.52-2Q255.28-1.83 254.72-1.5 254.16-1.17 253.47-0.76 252.79-0.34 252.06 0.1 251.33 0.54 250.71 0.89 250.1 1.25 249.73 1.46 249.35 1.68 249.35 1.68L249.35 1.68 238.02-15.75 236.99-1.46Q236.97-1.27 236.91-1.05 236.85-0.83 236.58-0.71L236.58-0.71Q236.36-0.61 235.82-0.4 235.29-0.2 234.57 0.07 233.84 0.34 233.05 0.62 232.26 0.9 231.55 1.14 230.84 1.37 230.29 1.51 229.74 1.66 229.55 1.66L229.55 1.66Q229.18 1.66 228.94 1.46 228.69 1.27 228.69 0.76L228.69 0.76Q228.94-2.29 229.25-5.9 229.57-9.5 229.87-13.28 230.16-17.07 230.41-20.84 230.67-24.61 230.84-28L230.84-28Q230.84-28.1 230.54-28.65 230.23-29.2 229.85-29.85 229.47-30.49 229.17-31.07 228.86-31.64 228.86-31.79L228.86-31.79Q228.86-31.96 229.05-32.1 229.23-32.25 229.65-32.5L229.65-32.5 236.16-36.18Q236.24-36.18 236.37-36.21 236.51-36.23 236.6-36.23L236.6-36.23Q236.87-36.23 237.03-36.17 237.19-36.11 237.36-35.79L237.36-35.79 249.2-14.43ZM283.65-20.26L283.65-20.26Q283.55-19.92 283.28-19.3 283.01-18.68 282.66-17.9 282.3-17.11 281.9-16.22 281.5-15.33 281.11-14.43L281.11-14.43Q280.96-14.09 280.84-13.93 280.72-13.77 280.45-13.7 280.18-13.62 279.7-13.61 279.23-13.6 278.37-13.57L278.37-13.57 274.98-13.5 274.3-6.03 286.82-6.03 286.82-5.08Q286.77-5.03 286.41-4.43 286.04-3.83 285.55-3 285.06-2.17 284.53-1.33 283.99-0.49 283.62 0.02L283.62 0.02Q283.38 0.46 283.06 0.72 282.74 0.98 282.37 1.1 281.99 1.22 281.54 1.25 281.08 1.27 280.55 1.27L280.55 1.27Q278.35 1.27 275.97 1.17 273.59 1.07 271.22 0.93 268.85 0.78 266.59 0.6 264.34 0.42 262.41 0.22L262.41 0.22Q262.24 0.2 262.1 0.02 261.97-0.15 261.97-0.37L261.97-0.37Q261.87-0.37 262.1-0.78 262.33-1.2 262.75-1.86 263.16-2.51 263.66-3.36 264.16-4.2 264.63-5.05L264.63-5.05 265.02-10.55Q265.12-11.94 265.18-12.62 265.24-13.31 265.24-13.35L265.24-13.35Q263.77-13.38 263.05-13.5 262.33-13.62 262.33-14.04L262.33-14.04Q262.33-14.23 262.69-14.77 263.04-15.31 263.55-16 264.07-16.7 264.64-17.46 265.21-18.21 265.65-18.85L265.65-18.85 266.26-27.15 266.19-27.15Q265.65-27.12 265.21-27.11 264.77-27.1 264.41-27.1L264.41-27.1Q263.24-27.1 262.74-27.23 262.24-27.37 262.24-27.73L262.24-27.73Q262.24-27.91 262.53-28.44 262.82-28.98 263.26-29.68 263.7-30.37 264.19-31.14 264.68-31.91 265.07-32.57L265.07-32.57 266.53-35.06 276.74-35.06 288.77-35.94Q288.8-35.94 288.91-35.93 289.02-35.91 289.14-35.85 289.26-35.79 289.37-35.64 289.48-35.5 289.48-35.23L289.48-35.23 289.12-33.96Q288.94-33.42 288.7-32.82 288.46-32.23 288.16-31.59L288.16-31.59 287.09-28.76Q286.92-28.34 286.7-28.13 286.48-27.91 285.77-27.88L285.77-27.88Q283.92-27.83 281.63-27.72 279.35-27.61 276.4-27.51L276.4-27.51Q276.3-27.17 276.3-26.97 276.3-26.76 276.25-26.17L276.25-26.17 276.13-25.05Q276.08-24.27 275.98-23.36 275.88-22.46 275.74-21.14L275.74-21.14Q276.98-21.19 278.17-21.24 279.35-21.29 280.33-21.33 281.3-21.36 282.02-21.39 282.74-21.41 283.04-21.41L283.04-21.41Q283.23-21.41 283.48-21.26 283.72-21.12 283.72-20.7L283.72-20.7Q283.72-20.51 283.65-20.26Z"
                                                                      fill="#6f605b"
                                                                ></path>
                                                            </g>
                                                        </svg>
                                                    </g>
                                                </svg>
                                            </g>
                                            <g transform="matrix(1,0,0,1,0,68.58416972172184)">
                                                <svg viewBox="0 0 232.20979199999996 31.809560547945203"
                                                     height="31.809560547945203" width="232.20979199999996">
                                                    <g transform="matrix(1,0,0,1,0,0)">
                                                        <svg width="232.20979199999996"
                                                             viewBox="-1.2999999523162842 -37.95000076293945 405.1099853515625 55.5"
                                                             height="31.809560547945203" data-palette-color="#f36527">
                                                            <path d="M28.25 0L18.75 0 19.05-7.85 10.7-7.85 8.25 0-1.3 0 11.55-36 28.05-36 28.25 0ZM19.85-27.25L16.7-27.25 12.75-14.55 19.3-14.55 19.85-27.25ZM62.5-24.7L62.5-24.7Q67.6-24.7 69.55-22L69.55-22Q70.95-20.15 70.95-17.3L70.95-17.3Q70.95-16.15 70.7-14.85L70.7-14.85 69.7-9Q68.85-4.25 66.05-1.78 63.25 0.7 59.05 0.7 54.85 0.7 53.2-1.55L53.2-1.55 50.5 13.9 42 13.9 48.7-24.05 56.4-24.05 56.15-22.7Q58.5-24.7 62.5-24.7ZM57.3-6.5L57.3-6.5Q58.7-6.5 59.9-7.4 61.1-8.3 61.4-10.1L61.4-10.1 62.05-13.85Q62.15-14.35 62.15-15.1 62.15-15.85 61.5-16.7 60.85-17.55 59.25-17.55L59.25-17.55Q56.65-17.55 55.85-16.3L55.85-16.3 54.35-7.9Q55.05-6.5 57.3-6.5ZM83.24-7.7L83.24-7.7Q83.24-6.4 84.57-6.4 85.89-6.4 86.79-6.9L86.79-6.9 86.54-1.25Q84.14 0.7 81.14 0.7L81.14 0.7Q76.59 0.7 75.24-1.4L75.24-1.4Q74.39-2.75 74.39-4.35 74.39-5.95 74.59-7.15L74.59-7.15 80.04-37.95 88.54-37.95 83.29-8.3Q83.24-8 83.24-7.7ZM113.34-7.7L113.34-7.7Q113.34-6.4 114.67-6.4 115.99-6.4 116.89-6.9L116.89-6.9 116.64-1.25Q114.24 0.7 111.24 0.7L111.24 0.7Q105.74 0.7 105.14-3.3L105.14-3.3Q102.64 0.7 97.79 0.7L97.79 0.7Q89.59 0.7 89.59-6.35L89.59-6.35Q89.59-7.55 89.84-9L89.84-9 90.89-14.85Q91.69-19.35 94.57-22.03 97.44-24.7 102.07-24.7 106.69-24.7 108.34-22.55L108.34-22.55 108.59-24.05 116.19-24.05 113.39-8.3Q113.34-8 113.34-7.7ZM99.19-13.85L98.54-10.1Q98.44-9.65 98.44-8.85 98.44-8.05 99.19-7.28 99.94-6.5 101.72-6.5 103.49-6.5 104.79-7.9L104.79-7.9 106.29-16.3Q105.74-17.55 103.69-17.55L103.69-17.55Q99.84-17.55 99.19-13.85L99.19-13.85ZM130.09 0.7L130.09 0.7Q119.69 0.7 119.69-6.5L119.69-6.5Q119.69-7.5 119.89-8.65L119.89-8.65 120.94-14.85Q121.74-19.65 125.31-22.2 128.89-24.75 134.39-24.8L134.39-24.8Q145.04-24.8 145.04-17.4L145.04-17.4Q145.04-15.8 144.66-14.53 144.29-13.25 143.89-12.8L143.89-12.8 143.49-12.3 134.99-12.3Q136.24-13.4 136.24-14.9L136.24-14.9Q136.24-17.6 133.54-17.6L133.54-17.6Q131.94-17.6 130.79-16.65 129.64-15.7 129.29-13.75L129.29-13.75 128.64-10.1Q128.54-9.6 128.54-9.15L128.54-9.15Q128.54-6.5 131.84-6.5L131.84-6.5Q132.94-6.5 133.81-7.2 134.69-7.9 134.84-8.75L134.84-8.75 143.14-8.65Q141.49 0.7 130.09 0.7ZM157.59 0.7L157.59 0.7Q147.19 0.7 147.19-6.5L147.19-6.5Q147.19-7.5 147.39-8.65L147.39-8.65 148.44-14.85Q149.29-19.65 152.86-22.23 156.44-24.8 162.34-24.8L162.34-24.8Q172.39-24.8 172.39-17.2L172.39-17.2Q172.39-16.1 172.19-14.8L172.19-14.8 171.59-11.25 156.34-11.25 156.14-10.1Q156.04-9.5 156.04-9L156.04-9Q156.04-6.25 159.29-6.25L159.29-6.25Q160.49-6.25 161.34-7 162.19-7.75 162.34-8.75L162.34-8.75 170.64-8.65Q168.99 0.7 157.59 0.7ZM156.84-14.3L163.59-14.3Q163.79-15.15 163.79-15.88 163.79-16.6 163.14-17.35 162.49-18.1 161.06-18.1 159.64-18.1 158.46-17.15 157.29-16.2 156.84-14.3L156.84-14.3ZM208.78 0.9L208.78 0.9Q208.78 8.2 205.06 12.88 201.33 17.55 194.96 17.55 188.58 17.55 186.48 14.4L186.48 14.4Q185.18 12.4 185.18 9.53 185.18 6.65 185.68 3.8L185.68 3.8 192.08-32.4 200.58-32.4 199.08-24.05 211.53-24.05 210.28-17 200.48-17Q204.03-14.15 206.41-9.6 208.78-5.05 208.78 0.9ZM196.23 10.4Q197.78 10.4 198.88 7.9 199.98 5.4 199.98 1.33 199.98-2.75 199.16-6.9 198.33-11.05 197.18-13.4L197.18-13.4 194.18 3.75Q193.88 5.5 193.88 6.8L193.88 6.8Q193.88 10.4 196.23 10.4L196.23 10.4ZM227.98-24.75L227.98-24.75Q233.38-24.75 236.13-22.4L236.13-22.4Q238.28-20.55 238.28-17.25L238.28-17.25Q238.28-16.15 238.03-14.85L238.03-14.85 236.98-9Q236.03-3.7 232.55-1.5 229.08 0.7 223.28 0.7 217.48 0.7 214.78-1.5L214.78-1.5Q212.78-3.15 212.78-6.45L212.78-6.45Q212.78-7.6 213.03-9L213.03-9 214.08-14.85Q215.83-24.75 227.98-24.75ZM228.68-10.1L229.33-13.85Q229.43-14.35 229.43-15.13 229.43-15.9 228.78-16.85 228.13-17.8 226.5-17.8 224.88-17.8 223.78-16.73 222.68-15.65 222.38-13.85L222.38-13.85 221.73-10.1Q221.63-9.6 221.63-8.83 221.63-8.05 222.28-7.15 222.93-6.25 224.55-6.25 226.18-6.25 227.28-7.38 228.38-8.5 228.68-10.1L228.68-10.1ZM265.48-18.95L265.48-18.95Q265.48-17.25 264.9-15.65 264.32-14.05 263.77-13.3L263.77-13.3 263.23-12.6 255.68-12.6Q256.93-13.75 256.93-15.45L256.93-15.45Q256.93-16.35 256.35-16.93 255.78-17.5 254.78-17.5L254.78-17.5Q253.07-17.5 251.82-15.8L251.82-15.8 249.03 0 240.53 0 244.78-24.05 252.68-24.05 252.07-20.7Q254.93-24.75 258.98-24.75L258.98-24.75Q262.23-24.75 263.85-23.2 265.48-21.65 265.48-18.95ZM300.62 0.9L300.62 0.9Q300.62 8.2 296.89 12.88 293.17 17.55 286.8 17.55 280.42 17.55 278.32 14.4L278.32 14.4Q277.02 12.4 277.02 9.53 277.02 6.65 277.52 3.8L277.52 3.8 283.92-32.4 292.42-32.4 290.92-24.05 303.37-24.05 302.12-17 292.32-17Q295.87-14.15 298.25-9.6 300.62-5.05 300.62 0.9ZM288.07 10.4Q289.62 10.4 290.72 7.9 291.82 5.4 291.82 1.33 291.82-2.75 291-6.9 290.17-11.05 289.02-13.4L289.02-13.4 286.02 3.75Q285.72 5.5 285.72 6.8L285.72 6.8Q285.72 10.4 288.07 10.4L288.07 10.4ZM319.82-24.75L319.82-24.75Q325.22-24.75 327.97-22.4L327.97-22.4Q330.12-20.55 330.12-17.25L330.12-17.25Q330.12-16.15 329.87-14.85L329.87-14.85 328.82-9Q327.87-3.7 324.39-1.5 320.92 0.7 315.12 0.7 309.32 0.7 306.62-1.5L306.62-1.5Q304.62-3.15 304.62-6.45L304.62-6.45Q304.62-7.6 304.87-9L304.87-9 305.92-14.85Q307.67-24.75 319.82-24.75ZM320.52-10.1L321.17-13.85Q321.27-14.35 321.27-15.13 321.27-15.9 320.62-16.85 319.97-17.8 318.34-17.8 316.72-17.8 315.62-16.73 314.52-15.65 314.22-13.85L314.22-13.85 313.57-10.1Q313.47-9.6 313.47-8.83 313.47-8.05 314.12-7.15 314.77-6.25 316.39-6.25 318.02-6.25 319.12-7.38 320.22-8.5 320.52-10.1L320.52-10.1ZM342.36-7.7L342.36-7.7Q342.36-6.4 343.69-6.4 345.01-6.4 345.91-6.9L345.91-6.9 345.66-1.25Q343.26 0.7 340.26 0.7L340.26 0.7Q335.71 0.7 334.36-1.4L334.36-1.4Q333.51-2.75 333.51-4.35 333.51-5.95 333.71-7.15L333.71-7.15 339.16-37.95 347.66-37.95 342.41-8.3Q342.36-8 342.36-7.7ZM372.96-6.4L372.96-6.4Q374.11-6.4 375.01-6.9L375.01-6.9 374.76-1.25Q372.41 0.7 369.01 0.7 365.61 0.7 363.99-1.1 362.36-2.9 361.46-7.15L361.46-7.15 361.31-7.85Q360.26-7.7 358.16-7.6L358.16-7.6 356.81 0 348.31 0 355.01-37.95 363.51-37.95 360.61-21.5Q363.56-24.75 368.61-24.75L368.61-24.75Q372.01-24.75 373.64-23.08 375.26-21.4 375.26-18.6L375.26-18.6Q375.26-13.2 369.61-10.15L369.61-10.15 370.16-8.3Q370.71-6.4 372.96-6.4ZM364.31-17.95L364.31-17.95Q361.61-17.95 359.51-15.4L359.51-15.4 358.96-12.1Q366.36-12.4 366.36-16.05L366.36-16.05Q366.36-16.9 365.84-17.43 365.31-17.95 364.31-17.95ZM403.81-18.85L403.81-18.85Q403.81-17.2 402.81-15.8L402.81-15.8 394.61-15.8Q395.01-16.1 395.01-16.8 395.01-17.5 394.21-17.93 393.41-18.35 392.16-18.35L392.16-18.35Q388.41-18.35 388.41-16.05L388.41-16.05Q388.41-15.15 389.81-14.75 391.21-14.35 393.21-14.1 395.21-13.85 397.21-13.38 399.21-12.9 400.61-11.5 402.01-10.1 402.01-7.75L402.01-7.75Q402.01-3.6 398.69-1.45 395.36 0.7 389.01 0.7 382.66 0.7 380.11-1.35L380.11-1.35Q378.11-2.95 378.11-5.75L378.11-5.75Q378.11-6.55 378.26-7.4L378.26-7.4 386.61-7.5Q386.51-6.8 387.44-6.28 388.36-5.75 390.16-5.75 391.96-5.75 392.76-6.13 393.56-6.5 393.56-7.55L393.56-7.55Q393.56-8.25 392.16-8.53 390.76-8.8 388.73-9 386.71-9.2 384.69-9.65 382.66-10.1 381.26-11.55 379.86-13 379.86-15.35L379.86-15.35Q379.86-19.9 383.38-22.35 386.91-24.8 393.56-24.8L393.56-24.8Q403.81-24.8 403.81-18.85Z"
                                                                  opacity="1" transform="matrix(1,0,0,1,0,0)"
                                                                  fill="#f36527" class="undefined-text-1"
                                                                  id="text-1"></path>
                                                        </svg>
                                                    </g>
                                                </svg>
                                            </g>
                                        </svg>
                                    </g>
                                </svg>
                            </g>
                            <g>
                                <svg viewBox="0 0 138.74413523267984 138.74413523267984" height="138.74413523267984"
                                     width="138.74413523267984">
                                    <g>
                                        <svg xmlns="http://www.w3.org/2000/svg"
                                             xmlns:xlink="http://www.w3.org/1999/xlink" version="1.1" x="0" y="0"
                                             viewBox="0 0 100 100" style="enable-background:new 0 0 100 100;"
                                             xml:space="preserve" height="138.74413523267984" width="138.74413523267984"
                                             class="icon-icon-0" data-fill-palette-color="accent" id="icon-0"><polygon points="100,0 25,50 43.75,62.5 0,100 75,62.5 56.25,50 " fill="#f36527" ></polygon></svg>
                                    </g>
                                </svg>
                            </g>
                        </svg>
                    </g>
                </svg>
                <rect width="395.52" height="97.04586631966589" fill="none" stroke="none" visibility="hidden"></rect>
            </g>
        </svg>
    </g>
</svg>
